# xmcd CD database file
#
# Track frame offsets:
#	150
#	68713
#	129700
#	197493
#
# Disc length: 3551 seconds
#
# Revision: 0
# Processed by: cddbd v1.5.2PL0 Copyright (c) Steve Scherf et al.
# Submitted via: CDex 1.70beta2
#
DISCID=330ddd04
DTITLE=Dr. Jeffrey Thompson - Breath
DYEAR=2007
DGENRE=New Age
TTITLE0=Mountain Rain
TTITLE1=Healing Waters of Thailand
TTITLE2=Fire Dance
TTITLE3=Indian Summer
EXTD=YEAR: 2007
EXTT0=
EXTT1=
EXTT2=
EXTT3=
PLAYORDER=
